<svg xmlns="http://www.w3.org/2000/svg" viewBox="0 0 720 340" fill="none">
<defs><radialGradient id="halo"><stop stop-color="#62d8ff" stop-opacity=".24"/><stop offset="1" stop-color="#62d8ff" stop-opacity="0"/></radialGradient><linearGradient id="glass" x1="0" y1="0" x2="1" y2="1"><stop stop-color="#62d8ff" stop-opacity=".32"/><stop offset="1" stop-color="#ab9aff" stop-opacity=".08"/></linearGradient><pattern id="grid" width="36" height="36" patternUnits="userSpaceOnUse"><path d="M36 0H0v36" stroke="#fff" stroke-opacity=".04"/></pattern></defs>
<rect width="720" height="340" fill="#101a27"/><rect width="720" height="340" fill="url(#grid)"/><ellipse cx="350" cy="170" rx="270" ry="175" fill="url(#halo)"/>
<ellipse cx="345" cy="289" rx="152" ry="17" fill="#000" fill-opacity=".3"/>
<g><path d="m195 120 135-65 135 65zM210 140h240v22H210zM210 250h240v25H210z" fill="url(#glass)" stroke="#62d8ff" stroke-width="3"/><path d="M235 172v68m64-68v68m64-68v68m64-68v68" stroke="#bbecff" stroke-width="17"/><circle cx="465" cy="218" r="47" fill="#20234c" stroke="#b5a4ff" stroke-width="3"/><path d="M451 199h19a10 10 0 0 1 0 20h-19m8-30v52m-8-22h21a10 10 0 0 1 0 20h-21" fill="none" stroke="#b5a4ff" stroke-width="4"/></g><path d="M45 45h25m-25 0v25m605 200h25m0 0v25" stroke="#62d8ff" stroke-opacity=".65" stroke-width="2"/>
<circle cx="555" cy="83" r="4" fill="#ab9aff"/><circle cx="164" cy="133" r="3" fill="#62d8ff"/><path d="M525 215h55m-55 10h32" stroke="#62d8ff" stroke-opacity=".45" stroke-width="2"/>
</svg>