<svg xmlns="http://www.w3.org/2000/svg" viewBox="0 0 720 340" fill="none">
<defs><radialGradient id="halo"><stop stop-color="#ffc07b" stop-opacity=".24"/><stop offset="1" stop-color="#ffc07b" stop-opacity="0"/></radialGradient><linearGradient id="glass" x1="0" y1="0" x2="1" y2="1"><stop stop-color="#ffc07b" stop-opacity=".32"/><stop offset="1" stop-color="#62d8ff" stop-opacity=".08"/></linearGradient><pattern id="grid" width="36" height="36" patternUnits="userSpaceOnUse"><path d="M36 0H0v36" stroke="#fff" stroke-opacity=".04"/></pattern></defs>
<rect width="720" height="340" fill="#101a27"/><rect width="720" height="340" fill="url(#grid)"/><ellipse cx="350" cy="170" rx="270" ry="175" fill="url(#halo)"/>
<ellipse cx="345" cy="289" rx="152" ry="17" fill="#000" fill-opacity=".3"/>
<g><path d="M200 260V155l65 36v-50l65 36v-47l65 37v93z" fill="url(#glass)" stroke="#ffc07b" stroke-width="3"/><path d="M407 260V85h32v175m-216-41h30m20 0h30m20 0h30" stroke="#ffc07b" stroke-width="5" fill="none"/><path d="M150 270h350M440 85h55M465 85v90m-25 0h50m-50 0 25 25 25-25" stroke="#62d8ff" stroke-width="3" fill="none"/><circle cx="410" cy="55" r="10" fill="#ffc07b" fill-opacity=".3"/></g><path d="M45 45h25m-25 0v25m605 200h25m0 0v25" stroke="#ffc07b" stroke-opacity=".65" stroke-width="2"/>
<circle cx="555" cy="83" r="4" fill="#62d8ff"/><circle cx="164" cy="133" r="3" fill="#ffc07b"/><path d="M525 215h55m-55 10h32" stroke="#ffc07b" stroke-opacity=".45" stroke-width="2"/>
</svg>